<?xml version="1.0" encoding="UTF-8"?>
<svg xmlns="http://www.w3.org/2000/svg" width="440" height="470" viewBox="0 0 440 470">
<title>Defect Map — demo_03_graphite_stack</title>
<rect width="440" height="470" fill="#0d1117"/>
<rect x="41" y="41" width="16" height="16" fill="#21262d" opacity="0.6"/>
<rect x="59" y="41" width="16" height="16" fill="#21262d" opacity="0.6"/>
<rect x="77" y="41" width="16" height="16" fill="#21262d" opacity="0.6"/>
<rect x="95" y="41" width="16" height="16" fill="#21262d" opacity="0.6"/>
<rect x="113" y="41" width="16" height="16" fill="#21262d" opacity="0.6"/>
<rect x="131" y="41" width="16" height="16" fill="#f85149" opacity="0.9"/>
<rect x="149" y="41" width="16" height="16" fill="#21262d" opacity="0.6"/>
<rect x="167" y="41" width="16" height="16" fill="#21262d" opacity="0.6"/>
<rect x="185" y="41" width="16" height="16" fill="#21262d" opacity="0.6"/>
<rect x="203" y="41" width="16" height="16" fill="#21262d" opacity="0.6"/>
<rect x="221" y="41" width="16" height="16" fill="#21262d" opacity="0.6"/>
<rect x="239" y="41" width="16" height="16" fill="#21262d" opacity="0.6"/>
<rect x="257" y="41" width="16" height="16" fill="#21262d" opacity="0.6"/>
<rect x="275" y="41" width="16" height="16" fill="#21262d" opacity="0.6"/>
<rect x="293" y="41" width="16" height="16" fill="#21262d" opacity="0.6"/>
<rect x="311" y="41" width="16" height="16" fill="#21262d" opacity="0.6"/>
<rect x="329" y="41" width="16" height="16" fill="#21262d" opacity="0.6"/>
<rect x="347" y="41" width="16" height="16" fill="#21262d" opacity="0.6"/>
<rect x="365" y="41" width="16" height="16" fill="#21262d" opacity="0.6"/>
<rect x="383" y="41" width="16" height="16" fill="#21262d" opacity="0.6"/>
<rect x="41" y="59" width="16" height="16" fill="#21262d" opacity="0.6"/>
<rect x="59" y="59" width="16" height="16" fill="#21262d" opacity="0.6"/>
<rect x="77" y="59" width="16" height="16" fill="#21262d" opacity="0.6"/>
<rect x="95" y="59" width="16" height="16" fill="#21262d" opacity="0.6"/>
<rect x="113" y="59" width="16" height="16" fill="#21262d" opacity="0.6"/>
<rect x="131" y="59" width="16" height="16" fill="#21262d" opacity="0.6"/>
<rect x="149" y="59" width="16" height="16" fill="#21262d" opacity="0.6"/>
<rect x="167" y="59" width="16" height="16" fill="#21262d" opacity="0.6"/>
<rect x="185" y="59" width="16" height="16" fill="#21262d" opacity="0.6"/>
<rect x="203" y="59" width="16" height="16" fill="#21262d" opacity="0.6"/>
<rect x="221" y="59" width="16" height="16" fill="#21262d" opacity="0.6"/>
<rect x="239" y="59" width="16" height="16" fill="#21262d" opacity="0.6"/>
<rect x="257" y="59" width="16" height="16" fill="#21262d" opacity="0.6"/>
<rect x="275" y="59" width="16" height="16" fill="#21262d" opacity="0.6"/>
<rect x="293" y="59" width="16" height="16" fill="#21262d" opacity="0.6"/>
<rect x="311" y="59" width="16" height="16" fill="#21262d" opacity="0.6"/>
<rect x="329" y="59" width="16" height="16" fill="#21262d" opacity="0.6"/>
<rect x="347" y="59" width="16" height="16" fill="#21262d" opacity="0.6"/>
<rect x="365" y="59" width="16" height="16" fill="#21262d" opacity="0.6"/>
<rect x="383" y="59" width="16" height="16" fill="#21262d" opacity="0.6"/>
<rect x="41" y="77" width="16" height="16" fill="#21262d" opacity="0.6"/>
<rect x="59" y="77" width="16" height="16" fill="#21262d" opacity="0.6"/>
<rect x="77" y="77" width="16" height="16" fill="#21262d" opacity="0.6"/>
<rect x="95" y="77" width="16" height="16" fill="#21262d" opacity="0.6"/>
<rect x="113" y="77" width="16" height="16" fill="#f85149" opacity="0.9"/>
<rect x="131" y="77" width="16" height="16" fill="#21262d" opacity="0.6"/>
<rect x="149" y="77" width="16" height="16" fill="#21262d" opacity="0.6"/>
<rect x="167" y="77" width="16" height="16" fill="#21262d" opacity="0.6"/>
<rect x="185" y="77" width="16" height="16" fill="#21262d" opacity="0.6"/>
<rect x="203" y="77" width="16" height="16" fill="#21262d" opacity="0.6"/>
<rect x="221" y="77" width="16" height="16" fill="#21262d" opacity="0.6"/>
<rect x="239" y="77" width="16" height="16" fill="#21262d" opacity="0.6"/>
<rect x="257" y="77" width="16" height="16" fill="#21262d" opacity="0.6"/>
<rect x="275" y="77" width="16" height="16" fill="#21262d" opacity="0.6"/>
<rect x="293" y="77" width="16" height="16" fill="#21262d" opacity="0.6"/>
<rect x="311" y="77" width="16" height="16" fill="#f85149" opacity="0.9"/>
<rect x="329" y="77" width="16" height="16" fill="#21262d" opacity="0.6"/>
<rect x="347" y="77" width="16" height="16" fill="#21262d" opacity="0.6"/>
<rect x="365" y="77" width="16" height="16" fill="#21262d" opacity="0.6"/>
<rect x="383" y="77" width="16" height="16" fill="#21262d" opacity="0.6"/>
<rect x="41" y="95" width="16" height="16" fill="#21262d" opacity="0.6"/>
<rect x="59" y="95" width="16" height="16" fill="#21262d" opacity="0.6"/>
<rect x="77" y="95" width="16" height="16" fill="#21262d" opacity="0.6"/>
<rect x="95" y="95" width="16" height="16" fill="#21262d" opacity="0.6"/>
<rect x="113" y="95" width="16" height="16" fill="#21262d" opacity="0.6"/>
<rect x="131" y="95" width="16" height="16" fill="#21262d" opacity="0.6"/>
<rect x="149" y="95" width="16" height="16" fill="#21262d" opacity="0.6"/>
<rect x="167" y="95" width="16" height="16" fill="#21262d" opacity="0.6"/>
<rect x="185" y="95" width="16" height="16" fill="#21262d" opacity="0.6"/>
<rect x="203" y="95" width="16" height="16" fill="#21262d" opacity="0.6"/>
<rect x="221" y="95" width="16" height="16" fill="#21262d" opacity="0.6"/>
<rect x="239" y="95" width="16" height="16" fill="#21262d" opacity="0.6"/>
<rect x="257" y="95" width="16" height="16" fill="#21262d" opacity="0.6"/>
<rect x="275" y="95" width="16" height="16" fill="#21262d" opacity="0.6"/>
<rect x="293" y="95" width="16" height="16" fill="#21262d" opacity="0.6"/>
<rect x="311" y="95" width="16" height="16" fill="#21262d" opacity="0.6"/>
<rect x="329" y="95" width="16" height="16" fill="#21262d" opacity="0.6"/>
<rect x="347" y="95" width="16" height="16" fill="#21262d" opacity="0.6"/>
<rect x="365" y="95" width="16" height="16" fill="#21262d" opacity="0.6"/>
<rect x="383" y="95" width="16" height="16" fill="#21262d" opacity="0.6"/>
<rect x="41" y="113" width="16" height="16" fill="#21262d" opacity="0.6"/>
<rect x="59" y="113" width="16" height="16" fill="#21262d" opacity="0.6"/>
<rect x="77" y="113" width="16" height="16" fill="#21262d" opacity="0.6"/>
<rect x="95" y="113" width="16" height="16" fill="#21262d" opacity="0.6"/>
<rect x="113" y="113" width="16" height="16" fill="#21262d" opacity="0.6"/>
<rect x="131" y="113" width="16" height="16" fill="#21262d" opacity="0.6"/>
<rect x="149" y="113" width="16" height="16" fill="#21262d" opacity="0.6"/>
<rect x="167" y="113" width="16" height="16" fill="#21262d" opacity="0.6"/>
<rect x="185" y="113" width="16" height="16" fill="#21262d" opacity="0.6"/>
<rect x="203" y="113" width="16" height="16" fill="#f85149" opacity="0.9"/>
<rect x="221" y="113" width="16" height="16" fill="#21262d" opacity="0.6"/>
<rect x="239" y="113" width="16" height="16" fill="#21262d" opacity="0.6"/>
<rect x="257" y="113" width="16" height="16" fill="#21262d" opacity="0.6"/>
<rect x="275" y="113" width="16" height="16" fill="#21262d" opacity="0.6"/>
<rect x="293" y="113" width="16" height="16" fill="#21262d" opacity="0.6"/>
<rect x="311" y="113" width="16" height="16" fill="#21262d" opacity="0.6"/>
<rect x="329" y="113" width="16" height="16" fill="#21262d" opacity="0.6"/>
<rect x="347" y="113" width="16" height="16" fill="#21262d" opacity="0.6"/>
<rect x="365" y="113" width="16" height="16" fill="#21262d" opacity="0.6"/>
<rect x="383" y="113" width="16" height="16" fill="#21262d" opacity="0.6"/>
<rect x="41" y="131" width="16" height="16" fill="#21262d" opacity="0.6"/>
<rect x="59" y="131" width="16" height="16" fill="#21262d" opacity="0.6"/>
<rect x="77" y="131" width="16" height="16" fill="#21262d" opacity="0.6"/>
<rect x="95" y="131" width="16" height="16" fill="#21262d" opacity="0.6"/>
<rect x="113" y="131" width="16" height="16" fill="#21262d" opacity="0.6"/>
<rect x="131" y="131" width="16" height="16" fill="#21262d" opacity="0.6"/>
<rect x="149" y="131" width="16" height="16" fill="#21262d" opacity="0.6"/>
<rect x="167" y="131" width="16" height="16" fill="#21262d" opacity="0.6"/>
<rect x="185" y="131" width="16" height="16" fill="#21262d" opacity="0.6"/>
<rect x="203" y="131" width="16" height="16" fill="#21262d" opacity="0.6"/>
<rect x="221" y="131" width="16" height="16" fill="#21262d" opacity="0.6"/>
<rect x="239" y="131" width="16" height="16" fill="#21262d" opacity="0.6"/>
<rect x="257" y="131" width="16" height="16" fill="#21262d" opacity="0.6"/>
<rect x="275" y="131" width="16" height="16" fill="#21262d" opacity="0.6"/>
<rect x="293" y="131" width="16" height="16" fill="#21262d" opacity="0.6"/>
<rect x="311" y="131" width="16" height="16" fill="#21262d" opacity="0.6"/>
<rect x="329" y="131" width="16" height="16" fill="#21262d" opacity="0.6"/>
<rect x="347" y="131" width="16" height="16" fill="#21262d" opacity="0.6"/>
<rect x="365" y="131" width="16" height="16" fill="#21262d" opacity="0.6"/>
<rect x="383" y="131" width="16" height="16" fill="#21262d" opacity="0.6"/>
<rect x="41" y="149" width="16" height="16" fill="#21262d" opacity="0.6"/>
<rect x="59" y="149" width="16" height="16" fill="#21262d" opacity="0.6"/>
<rect x="77" y="149" width="16" height="16" fill="#21262d" opacity="0.6"/>
<rect x="95" y="149" width="16" height="16" fill="#21262d" opacity="0.6"/>
<rect x="113" y="149" width="16" height="16" fill="#21262d" opacity="0.6"/>
<rect x="131" y="149" width="16" height="16" fill="#21262d" opacity="0.6"/>
<rect x="149" y="149" width="16" height="16" fill="#21262d" opacity="0.6"/>
<rect x="167" y="149" width="16" height="16" fill="#21262d" opacity="0.6"/>
<rect x="185" y="149" width="16" height="16" fill="#21262d" opacity="0.6"/>
<rect x="203" y="149" width="16" height="16" fill="#21262d" opacity="0.6"/>
<rect x="221" y="149" width="16" height="16" fill="#21262d" opacity="0.6"/>
<rect x="239" y="149" width="16" height="16" fill="#21262d" opacity="0.6"/>
<rect x="257" y="149" width="16" height="16" fill="#21262d" opacity="0.6"/>
<rect x="275" y="149" width="16" height="16" fill="#21262d" opacity="0.6"/>
<rect x="293" y="149" width="16" height="16" fill="#21262d" opacity="0.6"/>
<rect x="311" y="149" width="16" height="16" fill="#21262d" opacity="0.6"/>
<rect x="329" y="149" width="16" height="16" fill="#21262d" opacity="0.6"/>
<rect x="347" y="149" width="16" height="16" fill="#21262d" opacity="0.6"/>
<rect x="365" y="149" width="16" height="16" fill="#21262d" opacity="0.6"/>
<rect x="383" y="149" width="16" height="16" fill="#21262d" opacity="0.6"/>
<rect x="41" y="167" width="16" height="16" fill="#21262d" opacity="0.6"/>
<rect x="59" y="167" width="16" height="16" fill="#f85149" opacity="0.9"/>
<rect x="77" y="167" width="16" height="16" fill="#21262d" opacity="0.6"/>
<rect x="95" y="167" width="16" height="16" fill="#f85149" opacity="0.9"/>
<rect x="113" y="167" width="16" height="16" fill="#21262d" opacity="0.6"/>
<rect x="131" y="167" width="16" height="16" fill="#21262d" opacity="0.6"/>
<rect x="149" y="167" width="16" height="16" fill="#21262d" opacity="0.6"/>
<rect x="167" y="167" width="16" height="16" fill="#21262d" opacity="0.6"/>
<rect x="185" y="167" width="16" height="16" fill="#21262d" opacity="0.6"/>
<rect x="203" y="167" width="16" height="16" fill="#21262d" opacity="0.6"/>
<rect x="221" y="167" width="16" height="16" fill="#21262d" opacity="0.6"/>
<rect x="239" y="167" width="16" height="16" fill="#21262d" opacity="0.6"/>
<rect x="257" y="167" width="16" height="16" fill="#f85149" opacity="0.9"/>
<rect x="275" y="167" width="16" height="16" fill="#21262d" opacity="0.6"/>
<rect x="293" y="167" width="16" height="16" fill="#21262d" opacity="0.6"/>
<rect x="311" y="167" width="16" height="16" fill="#f85149" opacity="0.9"/>
<rect x="329" y="167" width="16" height="16" fill="#f85149" opacity="0.9"/>
<rect x="347" y="167" width="16" height="16" fill="#21262d" opacity="0.6"/>
<rect x="365" y="167" width="16" height="16" fill="#f85149" opacity="0.9"/>
<rect x="383" y="167" width="16" height="16" fill="#21262d" opacity="0.6"/>
<rect x="41" y="185" width="16" height="16" fill="#21262d" opacity="0.6"/>
<rect x="59" y="185" width="16" height="16" fill="#21262d" opacity="0.6"/>
<rect x="77" y="185" width="16" height="16" fill="#21262d" opacity="0.6"/>
<rect x="95" y="185" width="16" height="16" fill="#21262d" opacity="0.6"/>
<rect x="113" y="185" width="16" height="16" fill="#21262d" opacity="0.6"/>
<rect x="131" y="185" width="16" height="16" fill="#21262d" opacity="0.6"/>
<rect x="149" y="185" width="16" height="16" fill="#f85149" opacity="0.9"/>
<rect x="167" y="185" width="16" height="16" fill="#21262d" opacity="0.6"/>
<rect x="185" y="185" width="16" height="16" fill="#f85149" opacity="0.9"/>
<rect x="203" y="185" width="16" height="16" fill="#21262d" opacity="0.6"/>
<rect x="221" y="185" width="16" height="16" fill="#21262d" opacity="0.6"/>
<rect x="239" y="185" width="16" height="16" fill="#21262d" opacity="0.6"/>
<rect x="257" y="185" width="16" height="16" fill="#21262d" opacity="0.6"/>
<rect x="275" y="185" width="16" height="16" fill="#21262d" opacity="0.6"/>
<rect x="293" y="185" width="16" height="16" fill="#21262d" opacity="0.6"/>
<rect x="311" y="185" width="16" height="16" fill="#21262d" opacity="0.6"/>
<rect x="329" y="185" width="16" height="16" fill="#21262d" opacity="0.6"/>
<rect x="347" y="185" width="16" height="16" fill="#21262d" opacity="0.6"/>
<rect x="365" y="185" width="16" height="16" fill="#21262d" opacity="0.6"/>
<rect x="383" y="185" width="16" height="16" fill="#21262d" opacity="0.6"/>
<rect x="41" y="203" width="16" height="16" fill="#21262d" opacity="0.6"/>
<rect x="59" y="203" width="16" height="16" fill="#21262d" opacity="0.6"/>
<rect x="77" y="203" width="16" height="16" fill="#21262d" opacity="0.6"/>
<rect x="95" y="203" width="16" height="16" fill="#21262d" opacity="0.6"/>
<rect x="113" y="203" width="16" height="16" fill="#21262d" opacity="0.6"/>
<rect x="131" y="203" width="16" height="16" fill="#21262d" opacity="0.6"/>
<rect x="149" y="203" width="16" height="16" fill="#21262d" opacity="0.6"/>
<rect x="167" y="203" width="16" height="16" fill="#21262d" opacity="0.6"/>
<rect x="185" y="203" width="16" height="16" fill="#21262d" opacity="0.6"/>
<rect x="203" y="203" width="16" height="16" fill="#21262d" opacity="0.6"/>
<rect x="221" y="203" width="16" height="16" fill="#21262d" opacity="0.6"/>
<rect x="239" y="203" width="16" height="16" fill="#21262d" opacity="0.6"/>
<rect x="257" y="203" width="16" height="16" fill="#21262d" opacity="0.6"/>
<rect x="275" y="203" width="16" height="16" fill="#21262d" opacity="0.6"/>
<rect x="293" y="203" width="16" height="16" fill="#21262d" opacity="0.6"/>
<rect x="311" y="203" width="16" height="16" fill="#21262d" opacity="0.6"/>
<rect x="329" y="203" width="16" height="16" fill="#21262d" opacity="0.6"/>
<rect x="347" y="203" width="16" height="16" fill="#21262d" opacity="0.6"/>
<rect x="365" y="203" width="16" height="16" fill="#21262d" opacity="0.6"/>
<rect x="383" y="203" width="16" height="16" fill="#21262d" opacity="0.6"/>
<rect x="41" y="221" width="16" height="16" fill="#21262d" opacity="0.6"/>
<rect x="59" y="221" width="16" height="16" fill="#21262d" opacity="0.6"/>
<rect x="77" y="221" width="16" height="16" fill="#21262d" opacity="0.6"/>
<rect x="95" y="221" width="16" height="16" fill="#21262d" opacity="0.6"/>
<rect x="113" y="221" width="16" height="16" fill="#21262d" opacity="0.6"/>
<rect x="131" y="221" width="16" height="16" fill="#21262d" opacity="0.6"/>
<rect x="149" y="221" width="16" height="16" fill="#21262d" opacity="0.6"/>
<rect x="167" y="221" width="16" height="16" fill="#21262d" opacity="0.6"/>
<rect x="185" y="221" width="16" height="16" fill="#f85149" opacity="0.9"/>
<rect x="203" y="221" width="16" height="16" fill="#21262d" opacity="0.6"/>
<rect x="221" y="221" width="16" height="16" fill="#21262d" opacity="0.6"/>
<rect x="239" y="221" width="16" height="16" fill="#21262d" opacity="0.6"/>
<rect x="257" y="221" width="16" height="16" fill="#21262d" opacity="0.6"/>
<rect x="275" y="221" width="16" height="16" fill="#21262d" opacity="0.6"/>
<rect x="293" y="221" width="16" height="16" fill="#21262d" opacity="0.6"/>
<rect x="311" y="221" width="16" height="16" fill="#21262d" opacity="0.6"/>
<rect x="329" y="221" width="16" height="16" fill="#21262d" opacity="0.6"/>
<rect x="347" y="221" width="16" height="16" fill="#21262d" opacity="0.6"/>
<rect x="365" y="221" width="16" height="16" fill="#21262d" opacity="0.6"/>
<rect x="383" y="221" width="16" height="16" fill="#21262d" opacity="0.6"/>
<rect x="41" y="239" width="16" height="16" fill="#21262d" opacity="0.6"/>
<rect x="59" y="239" width="16" height="16" fill="#21262d" opacity="0.6"/>
<rect x="77" y="239" width="16" height="16" fill="#21262d" opacity="0.6"/>
<rect x="95" y="239" width="16" height="16" fill="#21262d" opacity="0.6"/>
<rect x="113" y="239" width="16" height="16" fill="#21262d" opacity="0.6"/>
<rect x="131" y="239" width="16" height="16" fill="#21262d" opacity="0.6"/>
<rect x="149" y="239" width="16" height="16" fill="#21262d" opacity="0.6"/>
<rect x="167" y="239" width="16" height="16" fill="#21262d" opacity="0.6"/>
<rect x="185" y="239" width="16" height="16" fill="#21262d" opacity="0.6"/>
<rect x="203" y="239" width="16" height="16" fill="#21262d" opacity="0.6"/>
<rect x="221" y="239" width="16" height="16" fill="#21262d" opacity="0.6"/>
<rect x="239" y="239" width="16" height="16" fill="#21262d" opacity="0.6"/>
<rect x="257" y="239" width="16" height="16" fill="#21262d" opacity="0.6"/>
<rect x="275" y="239" width="16" height="16" fill="#21262d" opacity="0.6"/>
<rect x="293" y="239" width="16" height="16" fill="#21262d" opacity="0.6"/>
<rect x="311" y="239" width="16" height="16" fill="#21262d" opacity="0.6"/>
<rect x="329" y="239" width="16" height="16" fill="#21262d" opacity="0.6"/>
<rect x="347" y="239" width="16" height="16" fill="#21262d" opacity="0.6"/>
<rect x="365" y="239" width="16" height="16" fill="#21262d" opacity="0.6"/>
<rect x="383" y="239" width="16" height="16" fill="#21262d" opacity="0.6"/>
<rect x="41" y="257" width="16" height="16" fill="#21262d" opacity="0.6"/>
<rect x="59" y="257" width="16" height="16" fill="#21262d" opacity="0.6"/>
<rect x="77" y="257" width="16" height="16" fill="#21262d" opacity="0.6"/>
<rect x="95" y="257" width="16" height="16" fill="#21262d" opacity="0.6"/>
<rect x="113" y="257" width="16" height="16" fill="#21262d" opacity="0.6"/>
<rect x="131" y="257" width="16" height="16" fill="#21262d" opacity="0.6"/>
<rect x="149" y="257" width="16" height="16" fill="#21262d" opacity="0.6"/>
<rect x="167" y="257" width="16" height="16" fill="#21262d" opacity="0.6"/>
<rect x="185" y="257" width="16" height="16" fill="#21262d" opacity="0.6"/>
<rect x="203" y="257" width="16" height="16" fill="#21262d" opacity="0.6"/>
<rect x="221" y="257" width="16" height="16" fill="#21262d" opacity="0.6"/>
<rect x="239" y="257" width="16" height="16" fill="#21262d" opacity="0.6"/>
<rect x="257" y="257" width="16" height="16" fill="#21262d" opacity="0.6"/>
<rect x="275" y="257" width="16" height="16" fill="#21262d" opacity="0.6"/>
<rect x="293" y="257" width="16" height="16" fill="#21262d" opacity="0.6"/>
<rect x="311" y="257" width="16" height="16" fill="#21262d" opacity="0.6"/>
<rect x="329" y="257" width="16" height="16" fill="#21262d" opacity="0.6"/>
<rect x="347" y="257" width="16" height="16" fill="#21262d" opacity="0.6"/>
<rect x="365" y="257" width="16" height="16" fill="#21262d" opacity="0.6"/>
<rect x="383" y="257" width="16" height="16" fill="#21262d" opacity="0.6"/>
<rect x="41" y="275" width="16" height="16" fill="#21262d" opacity="0.6"/>
<rect x="59" y="275" width="16" height="16" fill="#21262d" opacity="0.6"/>
<rect x="77" y="275" width="16" height="16" fill="#21262d" opacity="0.6"/>
<rect x="95" y="275" width="16" height="16" fill="#21262d" opacity="0.6"/>
<rect x="113" y="275" width="16" height="16" fill="#21262d" opacity="0.6"/>
<rect x="131" y="275" width="16" height="16" fill="#21262d" opacity="0.6"/>
<rect x="149" y="275" width="16" height="16" fill="#21262d" opacity="0.6"/>
<rect x="167" y="275" width="16" height="16" fill="#21262d" opacity="0.6"/>
<rect x="185" y="275" width="16" height="16" fill="#21262d" opacity="0.6"/>
<rect x="203" y="275" width="16" height="16" fill="#21262d" opacity="0.6"/>
<rect x="221" y="275" width="16" height="16" fill="#21262d" opacity="0.6"/>
<rect x="239" y="275" width="16" height="16" fill="#21262d" opacity="0.6"/>
<rect x="257" y="275" width="16" height="16" fill="#21262d" opacity="0.6"/>
<rect x="275" y="275" width="16" height="16" fill="#21262d" opacity="0.6"/>
<rect x="293" y="275" width="16" height="16" fill="#21262d" opacity="0.6"/>
<rect x="311" y="275" width="16" height="16" fill="#21262d" opacity="0.6"/>
<rect x="329" y="275" width="16" height="16" fill="#21262d" opacity="0.6"/>
<rect x="347" y="275" width="16" height="16" fill="#21262d" opacity="0.6"/>
<rect x="365" y="275" width="16" height="16" fill="#21262d" opacity="0.6"/>
<rect x="383" y="275" width="16" height="16" fill="#21262d" opacity="0.6"/>
<rect x="41" y="293" width="16" height="16" fill="#21262d" opacity="0.6"/>
<rect x="59" y="293" width="16" height="16" fill="#21262d" opacity="0.6"/>
<rect x="77" y="293" width="16" height="16" fill="#21262d" opacity="0.6"/>
<rect x="95" y="293" width="16" height="16" fill="#21262d" opacity="0.6"/>
<rect x="113" y="293" width="16" height="16" fill="#21262d" opacity="0.6"/>
<rect x="131" y="293" width="16" height="16" fill="#21262d" opacity="0.6"/>
<rect x="149" y="293" width="16" height="16" fill="#21262d" opacity="0.6"/>
<rect x="167" y="293" width="16" height="16" fill="#21262d" opacity="0.6"/>
<rect x="185" y="293" width="16" height="16" fill="#21262d" opacity="0.6"/>
<rect x="203" y="293" width="16" height="16" fill="#21262d" opacity="0.6"/>
<rect x="221" y="293" width="16" height="16" fill="#21262d" opacity="0.6"/>
<rect x="239" y="293" width="16" height="16" fill="#21262d" opacity="0.6"/>
<rect x="257" y="293" width="16" height="16" fill="#21262d" opacity="0.6"/>
<rect x="275" y="293" width="16" height="16" fill="#21262d" opacity="0.6"/>
<rect x="293" y="293" width="16" height="16" fill="#21262d" opacity="0.6"/>
<rect x="311" y="293" width="16" height="16" fill="#21262d" opacity="0.6"/>
<rect x="329" y="293" width="16" height="16" fill="#21262d" opacity="0.6"/>
<rect x="347" y="293" width="16" height="16" fill="#21262d" opacity="0.6"/>
<rect x="365" y="293" width="16" height="16" fill="#21262d" opacity="0.6"/>
<rect x="383" y="293" width="16" height="16" fill="#21262d" opacity="0.6"/>
<rect x="41" y="311" width="16" height="16" fill="#21262d" opacity="0.6"/>
<rect x="59" y="311" width="16" height="16" fill="#21262d" opacity="0.6"/>
<rect x="77" y="311" width="16" height="16" fill="#21262d" opacity="0.6"/>
<rect x="95" y="311" width="16" height="16" fill="#21262d" opacity="0.6"/>
<rect x="113" y="311" width="16" height="16" fill="#21262d" opacity="0.6"/>
<rect x="131" y="311" width="16" height="16" fill="#f85149" opacity="0.9"/>
<rect x="149" y="311" width="16" height="16" fill="#21262d" opacity="0.6"/>
<rect x="167" y="311" width="16" height="16" fill="#21262d" opacity="0.6"/>
<rect x="185" y="311" width="16" height="16" fill="#21262d" opacity="0.6"/>
<rect x="203" y="311" width="16" height="16" fill="#21262d" opacity="0.6"/>
<rect x="221" y="311" width="16" height="16" fill="#21262d" opacity="0.6"/>
<rect x="239" y="311" width="16" height="16" fill="#21262d" opacity="0.6"/>
<rect x="257" y="311" width="16" height="16" fill="#21262d" opacity="0.6"/>
<rect x="275" y="311" width="16" height="16" fill="#21262d" opacity="0.6"/>
<rect x="293" y="311" width="16" height="16" fill="#21262d" opacity="0.6"/>
<rect x="311" y="311" width="16" height="16" fill="#21262d" opacity="0.6"/>
<rect x="329" y="311" width="16" height="16" fill="#21262d" opacity="0.6"/>
<rect x="347" y="311" width="16" height="16" fill="#21262d" opacity="0.6"/>
<rect x="365" y="311" width="16" height="16" fill="#21262d" opacity="0.6"/>
<rect x="383" y="311" width="16" height="16" fill="#21262d" opacity="0.6"/>
<rect x="41" y="329" width="16" height="16" fill="#21262d" opacity="0.6"/>
<rect x="59" y="329" width="16" height="16" fill="#21262d" opacity="0.6"/>
<rect x="77" y="329" width="16" height="16" fill="#21262d" opacity="0.6"/>
<rect x="95" y="329" width="16" height="16" fill="#21262d" opacity="0.6"/>
<rect x="113" y="329" width="16" height="16" fill="#21262d" opacity="0.6"/>
<rect x="131" y="329" width="16" height="16" fill="#21262d" opacity="0.6"/>
<rect x="149" y="329" width="16" height="16" fill="#21262d" opacity="0.6"/>
<rect x="167" y="329" width="16" height="16" fill="#21262d" opacity="0.6"/>
<rect x="185" y="329" width="16" height="16" fill="#21262d" opacity="0.6"/>
<rect x="203" y="329" width="16" height="16" fill="#21262d" opacity="0.6"/>
<rect x="221" y="329" width="16" height="16" fill="#21262d" opacity="0.6"/>
<rect x="239" y="329" width="16" height="16" fill="#21262d" opacity="0.6"/>
<rect x="257" y="329" width="16" height="16" fill="#21262d" opacity="0.6"/>
<rect x="275" y="329" width="16" height="16" fill="#21262d" opacity="0.6"/>
<rect x="293" y="329" width="16" height="16" fill="#21262d" opacity="0.6"/>
<rect x="311" y="329" width="16" height="16" fill="#21262d" opacity="0.6"/>
<rect x="329" y="329" width="16" height="16" fill="#21262d" opacity="0.6"/>
<rect x="347" y="329" width="16" height="16" fill="#21262d" opacity="0.6"/>
<rect x="365" y="329" width="16" height="16" fill="#f85149" opacity="0.9"/>
<rect x="383" y="329" width="16" height="16" fill="#21262d" opacity="0.6"/>
<rect x="41" y="347" width="16" height="16" fill="#21262d" opacity="0.6"/>
<rect x="59" y="347" width="16" height="16" fill="#21262d" opacity="0.6"/>
<rect x="77" y="347" width="16" height="16" fill="#21262d" opacity="0.6"/>
<rect x="95" y="347" width="16" height="16" fill="#21262d" opacity="0.6"/>
<rect x="113" y="347" width="16" height="16" fill="#21262d" opacity="0.6"/>
<rect x="131" y="347" width="16" height="16" fill="#21262d" opacity="0.6"/>
<rect x="149" y="347" width="16" height="16" fill="#21262d" opacity="0.6"/>
<rect x="167" y="347" width="16" height="16" fill="#21262d" opacity="0.6"/>
<rect x="185" y="347" width="16" height="16" fill="#21262d" opacity="0.6"/>
<rect x="203" y="347" width="16" height="16" fill="#f85149" opacity="0.9"/>
<rect x="221" y="347" width="16" height="16" fill="#21262d" opacity="0.6"/>
<rect x="239" y="347" width="16" height="16" fill="#21262d" opacity="0.6"/>
<rect x="257" y="347" width="16" height="16" fill="#21262d" opacity="0.6"/>
<rect x="275" y="347" width="16" height="16" fill="#21262d" opacity="0.6"/>
<rect x="293" y="347" width="16" height="16" fill="#21262d" opacity="0.6"/>
<rect x="311" y="347" width="16" height="16" fill="#21262d" opacity="0.6"/>
<rect x="329" y="347" width="16" height="16" fill="#21262d" opacity="0.6"/>
<rect x="347" y="347" width="16" height="16" fill="#21262d" opacity="0.6"/>
<rect x="365" y="347" width="16" height="16" fill="#21262d" opacity="0.6"/>
<rect x="383" y="347" width="16" height="16" fill="#21262d" opacity="0.6"/>
<rect x="41" y="365" width="16" height="16" fill="#21262d" opacity="0.6"/>
<rect x="59" y="365" width="16" height="16" fill="#21262d" opacity="0.6"/>
<rect x="77" y="365" width="16" height="16" fill="#21262d" opacity="0.6"/>
<rect x="95" y="365" width="16" height="16" fill="#21262d" opacity="0.6"/>
<rect x="113" y="365" width="16" height="16" fill="#21262d" opacity="0.6"/>
<rect x="131" y="365" width="16" height="16" fill="#21262d" opacity="0.6"/>
<rect x="149" y="365" width="16" height="16" fill="#21262d" opacity="0.6"/>
<rect x="167" y="365" width="16" height="16" fill="#21262d" opacity="0.6"/>
<rect x="185" y="365" width="16" height="16" fill="#21262d" opacity="0.6"/>
<rect x="203" y="365" width="16" height="16" fill="#21262d" opacity="0.6"/>
<rect x="221" y="365" width="16" height="16" fill="#21262d" opacity="0.6"/>
<rect x="239" y="365" width="16" height="16" fill="#21262d" opacity="0.6"/>
<rect x="257" y="365" width="16" height="16" fill="#21262d" opacity="0.6"/>
<rect x="275" y="365" width="16" height="16" fill="#21262d" opacity="0.6"/>
<rect x="293" y="365" width="16" height="16" fill="#21262d" opacity="0.6"/>
<rect x="311" y="365" width="16" height="16" fill="#21262d" opacity="0.6"/>
<rect x="329" y="365" width="16" height="16" fill="#21262d" opacity="0.6"/>
<rect x="347" y="365" width="16" height="16" fill="#21262d" opacity="0.6"/>
<rect x="365" y="365" width="16" height="16" fill="#21262d" opacity="0.6"/>
<rect x="383" y="365" width="16" height="16" fill="#21262d" opacity="0.6"/>
<rect x="41" y="383" width="16" height="16" fill="#21262d" opacity="0.6"/>
<rect x="59" y="383" width="16" height="16" fill="#21262d" opacity="0.6"/>
<rect x="77" y="383" width="16" height="16" fill="#21262d" opacity="0.6"/>
<rect x="95" y="383" width="16" height="16" fill="#f85149" opacity="0.9"/>
<rect x="113" y="383" width="16" height="16" fill="#21262d" opacity="0.6"/>
<rect x="131" y="383" width="16" height="16" fill="#21262d" opacity="0.6"/>
<rect x="149" y="383" width="16" height="16" fill="#21262d" opacity="0.6"/>
<rect x="167" y="383" width="16" height="16" fill="#21262d" opacity="0.6"/>
<rect x="185" y="383" width="16" height="16" fill="#21262d" opacity="0.6"/>
<rect x="203" y="383" width="16" height="16" fill="#21262d" opacity="0.6"/>
<rect x="221" y="383" width="16" height="16" fill="#21262d" opacity="0.6"/>
<rect x="239" y="383" width="16" height="16" fill="#21262d" opacity="0.6"/>
<rect x="257" y="383" width="16" height="16" fill="#21262d" opacity="0.6"/>
<rect x="275" y="383" width="16" height="16" fill="#21262d" opacity="0.6"/>
<rect x="293" y="383" width="16" height="16" fill="#21262d" opacity="0.6"/>
<rect x="311" y="383" width="16" height="16" fill="#21262d" opacity="0.6"/>
<rect x="329" y="383" width="16" height="16" fill="#21262d" opacity="0.6"/>
<rect x="347" y="383" width="16" height="16" fill="#21262d" opacity="0.6"/>
<rect x="365" y="383" width="16" height="16" fill="#21262d" opacity="0.6"/>
<rect x="383" y="383" width="16" height="16" fill="#21262d" opacity="0.6"/>
<rect x="40" y="408" width="12" height="12" fill="#f85149" opacity="1"/>
<text x="56" y="419" fill="#8b949e" font-family="monospace" font-size="10" text-anchor="start">Defect site</text>
<rect x="140" y="408" width="12" height="12" fill="#21262d" opacity="0.8"/>
<text x="156" y="419" fill="#8b949e" font-family="monospace" font-size="10" text-anchor="start">Clean site</text>
<text x="220" y="18" fill="#f0f6fc" font-family="monospace" font-size="13" text-anchor="middle">Defect Map: demo_03_graphite_stack</text>
</svg>
