<?xml version="1.0" encoding="UTF-8"?>
<svg xmlns="http://www.w3.org/2000/svg" width="640" height="320" viewBox="0 0 640 320">
<title>Energy Trace — demo_03_graphite_stack</title>
<rect width="640" height="320" fill="#0d1117"/>
<line x1="50" y1="50" x2="50" y2="270" stroke="#58a6ff" stroke-width="1"/>
<line x1="50" y1="270" x2="590" y2="270" stroke="#58a6ff" stroke-width="1"/>
<line x1="45" y1="270" x2="50" y2="270" stroke="#58a6ff" stroke-width="1"/>
<text x="42" y="274" fill="#8b949e" font-family="monospace" font-size="10" text-anchor="end">-92.5</text>
<line x1="45" y1="215" x2="50" y2="215" stroke="#58a6ff" stroke-width="1"/>
<text x="42" y="219" fill="#8b949e" font-family="monospace" font-size="10" text-anchor="end">-73.9</text>
<line x1="45" y1="160" x2="50" y2="160" stroke="#58a6ff" stroke-width="1"/>
<text x="42" y="164" fill="#8b949e" font-family="monospace" font-size="10" text-anchor="end">-55.3</text>
<line x1="45" y1="105" x2="50" y2="105" stroke="#58a6ff" stroke-width="1"/>
<text x="42" y="109" fill="#8b949e" font-family="monospace" font-size="10" text-anchor="end">-36.7</text>
<line x1="45" y1="50" x2="50" y2="50" stroke="#58a6ff" stroke-width="1"/>
<text x="42" y="54" fill="#8b949e" font-family="monospace" font-size="10" text-anchor="end">-18.1</text>
<text x="320" y="312" fill="#8b949e" font-family="monospace" font-size="11" text-anchor="middle">FIRE step</text>
<text transform="rotate(-90,14,160)" x="14" y="160" fill="#8b949e" font-family="monospace" font-size="11" text-anchor="middle">U (kcal/mol)</text>
<line x1="50" y1="215" x2="590" y2="215" stroke="#21262d" stroke-width="1"/>
<line x1="50" y1="160" x2="590" y2="160" stroke="#21262d" stroke-width="1"/>
<line x1="50" y1="105" x2="590" y2="105" stroke="#21262d" stroke-width="1"/>
<line x1="50" y1="50" x2="590" y2="50" stroke="#21262d" stroke-width="1"/>
<polyline fill="none" stroke="#58a6ff" stroke-width="2" points="50,62.688 59.1525,75.6835 68.3051,87.8272 77.4576,99.1749 86.6102,109.779 95.7627,119.687 104.915,128.947 114.068,137.599 123.22,145.684 132.373,153.239 141.525,160.299 150.678,166.896 159.831,173.061 168.983,178.822 178.136,184.205 187.288,189.235 196.441,193.935 205.593,198.328 214.746,202.432 223.898,206.267 233.051,209.851 242.203,213.2 251.356,216.33 260.508,219.254 269.661,221.987 278.814,224.541 287.966,226.927 297.119,229.157 306.271,231.24 315.424,233.187 324.576,235.007 333.729,236.707 342.881,238.295 352.034,239.78 361.186,241.167 370.339,242.463 379.492,243.675 388.644,244.807 397.797,245.864 406.949,246.853 416.102,247.776 425.254,248.64 434.407,249.446 443.559,250.2 452.712,250.904 461.864,251.562 471.017,252.177 480.169,252.752 489.322,253.288 498.475,253.79 507.627,254.259 516.78,254.697 525.932,255.107 535.085,255.489 544.237,255.847 553.39,256.181 562.542,256.493 571.695,256.785 580.847,257.057 590,257.312 "/>
<text x="320" y="20" fill="#f0f6fc" font-family="monospace" font-size="13" text-anchor="middle">Energy Trace: demo_03_graphite_stack (RMgX)</text>
<text x="590" y="312" fill="#6e7681" font-family="monospace" font-size="9" text-anchor="end">2026-04-27T00:55:01Z</text>
</svg>
