<?xml version="1.0" encoding="UTF-8"?>
<svg xmlns="http://www.w3.org/2000/svg" width="640" height="320" viewBox="0 0 640 320">
<title>Energy Trace — demo_09_beta10_showcase</title>
<rect width="640" height="320" fill="#0d1117"/>
<line x1="50" y1="50" x2="50" y2="270" stroke="#58a6ff" stroke-width="1"/>
<line x1="50" y1="270" x2="590" y2="270" stroke="#58a6ff" stroke-width="1"/>
<line x1="45" y1="270" x2="50" y2="270" stroke="#58a6ff" stroke-width="1"/>
<text x="42" y="274" fill="#8b949e" font-family="monospace" font-size="10" text-anchor="end">-146.5</text>
<line x1="45" y1="215" x2="50" y2="215" stroke="#58a6ff" stroke-width="1"/>
<text x="42" y="219" fill="#8b949e" font-family="monospace" font-size="10" text-anchor="end">-115.8</text>
<line x1="45" y1="160" x2="50" y2="160" stroke="#58a6ff" stroke-width="1"/>
<text x="42" y="164" fill="#8b949e" font-family="monospace" font-size="10" text-anchor="end">-85.0</text>
<line x1="45" y1="105" x2="50" y2="105" stroke="#58a6ff" stroke-width="1"/>
<text x="42" y="109" fill="#8b949e" font-family="monospace" font-size="10" text-anchor="end">-54.2</text>
<line x1="45" y1="50" x2="50" y2="50" stroke="#58a6ff" stroke-width="1"/>
<text x="42" y="54" fill="#8b949e" font-family="monospace" font-size="10" text-anchor="end">-23.5</text>
<text x="320" y="312" fill="#8b949e" font-family="monospace" font-size="11" text-anchor="middle">FIRE step</text>
<text transform="rotate(-90,14,160)" x="14" y="160" fill="#8b949e" font-family="monospace" font-size="11" text-anchor="middle">U (kcal/mol)</text>
<line x1="50" y1="215" x2="590" y2="215" stroke="#21262d" stroke-width="1"/>
<line x1="50" y1="160" x2="590" y2="160" stroke="#21262d" stroke-width="1"/>
<line x1="50" y1="105" x2="590" y2="105" stroke="#21262d" stroke-width="1"/>
<line x1="50" y1="50" x2="590" y2="50" stroke="#21262d" stroke-width="1"/>
<polyline fill="none" stroke="#58a6ff" stroke-width="2" points="50,61.626 59.1525,64.9607 68.3051,68.2954 77.4576,71.6302 86.6102,74.9649 95.7627,78.2996 104.915,81.6343 114.068,84.969 123.22,88.3037 132.373,91.6384 141.525,94.9731 150.678,98.3078 159.831,101.643 168.983,104.977 178.136,108.312 187.288,111.647 196.441,114.981 205.593,118.316 214.746,121.651 223.898,124.986 233.051,128.32 242.203,131.655 251.356,134.99 260.508,138.324 269.661,141.659 278.814,144.994 287.966,148.329 297.119,151.663 306.271,154.998 315.424,158.333 324.576,161.667 333.729,165.002 342.881,168.337 352.034,171.671 361.186,175.006 370.339,178.341 379.492,181.676 388.644,185.01 397.797,188.345 406.949,191.68 416.102,195.014 425.254,198.349 434.407,201.684 443.559,205.019 452.712,208.353 461.864,211.688 471.017,215.023 480.169,218.357 489.322,221.692 498.475,225.027 507.627,228.362 516.78,231.696 525.932,235.031 535.085,238.366 544.237,241.7 553.39,245.035 562.542,248.37 571.695,251.705 580.847,255.039 590,258.374 "/>
<polyline fill="none" stroke="#3fb950" stroke-width="1" points="50,248 59.1525,245.017 68.3051,242.034 77.4576,239.051 86.6102,236.068 95.7627,233.085 104.915,230.102 114.068,227.119 123.22,224.136 132.373,221.153 141.525,218.169 150.678,215.186 159.831,212.203 168.983,209.22 178.136,206.237 187.288,203.254 196.441,200.271 205.593,197.288 214.746,194.305 223.898,191.322 233.051,188.339 242.203,185.356 251.356,182.373 260.508,179.39 269.661,176.407 278.814,173.424 287.966,170.441 297.119,167.458 306.271,164.475 315.424,161.492 324.576,158.508 333.729,155.525 342.881,152.542 352.034,149.559 361.186,146.576 370.339,143.593 379.492,140.61 388.644,137.627 397.797,134.644 406.949,131.661 416.102,128.678 425.254,125.695 434.407,122.712 443.559,119.729 452.712,116.746 461.864,113.763 471.017,110.78 480.169,107.797 489.322,104.814 498.475,101.831 507.627,98.8475 516.78,95.8644 525.932,92.8814 535.085,89.8983 544.237,86.9153 553.39,83.9322 562.542,80.9492 571.695,77.9661 580.847,74.9831 590,72 "/>
<text x="320" y="20" fill="#f0f6fc" font-family="monospace" font-size="13" text-anchor="middle">Energy Trace: demo_09_beta10_showcase (NaCl)</text>
<text x="590" y="312" fill="#6e7681" font-family="monospace" font-size="9" text-anchor="end">2026-04-27T01:07:06Z</text>
</svg>
