<?xml version="1.0" encoding="UTF-8"?>
<svg xmlns="http://www.w3.org/2000/svg" width="640" height="300" viewBox="0 0 640 300">
<title>RDF — demo_09_beta10_showcase</title>
<rect width="640" height="300" fill="#0d1117"/>
<line x1="50" y1="204" x2="590" y2="204" stroke="#30363d" stroke-width="1"/>
<text x="594" y="208" fill="#6e7681" font-family="monospace" font-size="9" text-anchor="start">1.0</text>
<line x1="50" y1="50" x2="50" y2="250" stroke="#58a6ff" stroke-width="1"/>
<line x1="50" y1="250" x2="590" y2="250" stroke="#58a6ff" stroke-width="1"/>
<polygon fill="#58a6ff" opacity="0.15" points="50,250 50,203.86 56.8354,203.86 63.6709,203.86 70.5063,203.86 77.3418,203.86 84.1772,203.84 91.0127,203.033 97.8481,191.552 104.684,136.484 111.519,68.1818 118.354,103.347 125.19,176.467 132.025,201.113 138.861,203.745 145.696,203.701 152.532,202.646 159.367,197.583 166.203,182.042 173.038,152.641 179.873,121.655 186.709,110.372 193.544,120.792 200.38,134.279 207.215,141.362 214.051,149.2 220.886,163.411 227.722,180.054 234.557,192.902 241.392,199.929 248.228,202.762 255.063,203.621 261.899,203.82 268.734,203.855 275.57,203.86 282.405,203.86 289.241,203.86 296.076,203.86 302.911,203.86 309.747,203.86 316.582,203.86 323.418,203.86 330.253,203.86 337.089,203.86 343.924,203.86 350.759,203.86 357.595,203.86 364.43,203.86 371.266,203.86 378.101,203.86 384.937,203.86 391.772,203.86 398.608,203.86 405.443,203.86 412.278,203.86 419.114,203.86 425.949,203.86 432.785,203.86 439.62,203.86 446.456,203.86 453.291,203.86 460.127,203.86 466.962,203.86 473.797,203.86 480.633,203.86 487.468,203.86 494.304,203.86 501.139,203.86 507.975,203.86 514.81,203.86 521.646,203.86 528.481,203.86 535.316,203.86 542.152,203.86 548.987,203.86 555.823,203.86 562.658,203.86 569.494,203.86 576.329,203.86 583.165,203.86 590,203.86 590,250"/>
<polyline fill="none" stroke="#58a6ff" stroke-width="2" points="50,203.86 56.8354,203.86 63.6709,203.86 70.5063,203.86 77.3418,203.86 84.1772,203.84 91.0127,203.033 97.8481,191.552 104.684,136.484 111.519,68.1818 118.354,103.347 125.19,176.467 132.025,201.113 138.861,203.745 145.696,203.701 152.532,202.646 159.367,197.583 166.203,182.042 173.038,152.641 179.873,121.655 186.709,110.372 193.544,120.792 200.38,134.279 207.215,141.362 214.051,149.2 220.886,163.411 227.722,180.054 234.557,192.902 241.392,199.929 248.228,202.762 255.063,203.621 261.899,203.82 268.734,203.855 275.57,203.86 282.405,203.86 289.241,203.86 296.076,203.86 302.911,203.86 309.747,203.86 316.582,203.86 323.418,203.86 330.253,203.86 337.089,203.86 343.924,203.86 350.759,203.86 357.595,203.86 364.43,203.86 371.266,203.86 378.101,203.86 384.937,203.86 391.772,203.86 398.608,203.86 405.443,203.86 412.278,203.86 419.114,203.86 425.949,203.86 432.785,203.86 439.62,203.86 446.456,203.86 453.291,203.86 460.127,203.86 466.962,203.86 473.797,203.86 480.633,203.86 487.468,203.86 494.304,203.86 501.139,203.86 507.975,203.86 514.81,203.86 521.646,203.86 528.481,203.86 535.316,203.86 542.152,203.86 548.987,203.86 555.823,203.86 562.658,203.86 569.494,203.86 576.329,203.86 583.165,203.86 590,203.86 "/>
<text x="320" y="292" fill="#8b949e" font-family="monospace" font-size="11" text-anchor="middle">r (Å)</text>
<text x="320" y="18" fill="#f0f6fc" font-family="monospace" font-size="13" text-anchor="middle">Radial Distribution Function g(r): demo_09_beta10_showcase</text>
<text x="590" y="292" fill="#6e7681" font-family="monospace" font-size="9" text-anchor="end">2026-04-27T01:07:06Z</text>
</svg>
