<?xml version="1.0" encoding="UTF-8"?>
<svg xmlns="http://www.w3.org/2000/svg" width="640" height="220" viewBox="0 0 640 220">
<title>Run Summary — demo_09_beta10_showcase</title>
<rect width="640" height="220" fill="#0d1117"/>
<line x1="50" y1="50" x2="50" y2="170" stroke="#58a6ff" stroke-width="1"/>
<line x1="50" y1="170" x2="590" y2="170" stroke="#58a6ff" stroke-width="1"/>
<polyline fill="none" stroke="#3fb950" stroke-width="2" points="50,134 58.5714,133.186 67.1429,132.373 75.7143,131.559 84.2857,130.746 92.8571,129.932 101.429,129.119 110,128.305 118.571,127.492 127.143,126.678 135.714,125.864 144.286,125.051 152.857,124.237 161.429,123.424 170,122.61 178.571,121.797 187.143,120.983 195.714,120.169 204.286,119.356 212.857,118.542 221.429,117.729 230,116.915 238.571,116.102 247.143,115.288 255.714,114.475 264.286,113.661 272.857,112.847 281.429,112.034 290,111.22 298.571,110.407 307.143,109.593 315.714,108.78 324.286,107.966 332.857,107.153 341.429,106.339 350,105.525 358.571,104.712 367.143,103.898 375.714,103.085 384.286,102.271 392.857,101.458 401.429,100.644 410,99.8305 418.571,99.0169 427.143,98.2034 435.714,97.3898 444.286,96.5763 452.857,95.7627 461.429,94.9492 470,94.1356 478.571,93.322 487.143,92.5085 495.714,91.6949 504.286,90.8814 512.857,90.0678 521.429,89.2542 530,88.4407 538.571,87.6271 547.143,86.8136 555.714,86 564.286,116.268 572.857,99.9601 581.429,118.398 590,99.851 "/>
<polyline fill="none" stroke="#f0883e" stroke-width="2" points="50,98.7964 230,108.359 410,99.5672 590,121.165 "/>
<rect x="50" y="8" width="12" height="10" fill="#3fb950" opacity="1"/>
<text x="66" y="17" fill="#8b949e" font-family="monospace" font-size="10" text-anchor="start">eta (order param)</text>
<rect x="210" y="8" width="12" height="10" fill="#f0883e" opacity="1"/>
<text x="226" y="17" fill="#8b949e" font-family="monospace" font-size="10" text-anchor="start">avg coordination</text>
<text x="320" y="214" fill="#8b949e" font-family="monospace" font-size="11" text-anchor="middle">FIRE step</text>
<text x="590" y="214" fill="#6e7681" font-family="monospace" font-size="9" text-anchor="end">2026-04-27T01:07:06Z</text>
</svg>
